<?xml version="1.0" standalone="no"?>
<!DOCTYPE svg PUBLIC "-//W3C//DTD SVG 20010904//EN"
 "http://www.w3.org/TR/2001/REC-SVG-20010904/DTD/svg10.dtd">
<svg version="1.0" xmlns="http://www.w3.org/2000/svg"
 width="992.000000pt" height="992.000000pt" viewBox="0 0 992.000000 992.000000"
 preserveAspectRatio="xMidYMid meet">
<metadata>
Created by potrace 1.11, written by Peter Selinger 2001-2013
</metadata>
<g transform="translate(0.000000,992.000000) scale(0.100000,-0.100000)"
fill="#000000" stroke="none">
<path d="M4678 8435 c-1 -2 -48 -6 -103 -10 -55 -3 -118 -8 -140 -11 -22 -3
-56 -6 -75 -8 -34 -4 -111 -14 -160 -21 -14 -2 -43 -6 -65 -10 -23 -3 -52 -8
-65 -10 -14 -3 -45 -8 -70 -11 -25 -3 -48 -8 -52 -11 -5 -2 -18 -6 -30 -8 -64
-13 -160 -33 -190 -41 -13 -3 -29 -6 -35 -6 -7 -1 -13 -5 -13 -10 0 -5 -4 -7
-9 -4 -5 3 -27 -1 -50 -9 -23 -8 -43 -14 -46 -15 -3 0 -6 0 -7 -1 -5 -1 -33
-8 -55 -13 -12 -2 -31 -10 -42 -16 -12 -6 -21 -9 -21 -6 0 5 -193 -61 -305
-105 -33 -13 -62 -24 -65 -25 -6 -1 -66 -28 -140 -61 -86 -39 -251 -121 -295
-147 -22 -12 -61 -34 -87 -49 -63 -35 -208 -127 -218 -137 -3 -4 -22 -16 -43
-29 -21 -13 -44 -30 -52 -38 -8 -8 -15 -11 -15 -7 0 4 -8 -3 -19 -14 -10 -12
-22 -22 -25 -22 -4 0 -13 -6 -20 -12 -7 -7 -28 -24 -46 -38 -120 -89 -334
-294 -450 -430 -83 -97 -160 -198 -160 -210 0 -5 -4 -10 -10 -10 -5 0 -10 -6
-10 -13 0 -8 -8 -21 -17 -30 -10 -9 -27 -33 -38 -54 -11 -21 -22 -40 -25 -43
-41 -40 -205 -411 -241 -544 -6 -22 -13 -48 -15 -56 -14 -50 -44 -203 -50
-250 -3 -30 -8 -64 -11 -75 -11 -43 -8 -414 3 -485 7 -41 14 -91 17 -110 8
-53 36 -181 48 -218 6 -18 12 -39 13 -45 2 -7 6 -19 9 -27 3 -8 18 -51 33 -95
15 -44 33 -93 41 -109 14 -27 9 -42 -17 -47 -28 -5 -55 -14 -299 -104 -18 -7
-37 -18 -42 -26 -12 -19 -11 -65 1 -87 5 -9 20 -48 34 -87 14 -38 39 -106 55
-150 17 -44 31 -86 31 -93 0 -7 -12 -17 -27 -22 -16 -6 -37 -15 -48 -21 -12
-5 -27 -11 -35 -13 -19 -4 -30 -8 -269 -110 -348 -149 -617 -279 -631 -307
-22 -39 -3 -71 67 -119 37 -24 96 -66 132 -93 135 -98 276 -202 286 -209 6 -5
55 -43 110 -85 55 -42 108 -84 117 -93 17 -15 18 -32 13 -191 -4 -96 -6 -297
-6 -448 0 -239 2 -275 16 -291 31 -34 59 -32 146 11 118 58 238 114 311 145
35 14 81 34 103 44 47 21 113 49 120 50 3 1 28 11 57 24 142 63 737 273 822
291 30 6 146 41 179 54 15 6 27 8 27 6 0 -2 11 0 26 5 14 6 39 12 57 16 50 8
80 42 74 84 -4 30 -73 301 -92 359 -5 16 3 21 54 33 l59 15 118 -60 c184 -92
601 -255 703 -274 14 -2 28 -6 33 -9 4 -3 16 -7 25 -9 10 -2 63 -15 118 -29
153 -38 222 -54 320 -72 50 -9 98 -18 109 -20 10 -2 37 -5 60 -8 22 -3 57 -7
76 -10 37 -6 112 -15 170 -22 19 -2 69 -6 110 -9 41 -3 98 -8 125 -10 58 -5
516 -5 590 -1 60 4 207 16 255 21 19 2 58 6 85 9 28 3 61 8 75 10 14 3 48 7
75 11 28 3 57 8 65 10 8 3 31 6 50 9 43 5 223 42 305 62 33 8 71 17 85 20 116
24 520 159 637 214 23 11 47 21 53 22 7 2 77 35 158 74 143 69 146 70 191 60
54 -13 74 -24 65 -37 -3 -5 -8 -21 -10 -36 -3 -15 -14 -60 -26 -102 -11 -41
-22 -82 -23 -91 -2 -8 -4 -15 -5 -15 -1 0 -4 -13 -6 -29 -3 -16 -9 -37 -15
-47 -15 -29 -10 -75 10 -93 16 -14 69 -33 141 -50 36 -9 239 -68 275 -80 22
-8 78 -26 125 -41 47 -14 90 -27 95 -29 6 -2 12 -4 15 -4 3 -1 37 -13 75 -28
39 -14 75 -27 80 -29 6 -1 19 -6 30 -10 11 -4 56 -21 100 -37 78 -29 102 -38
148 -58 12 -5 58 -23 102 -40 44 -18 84 -35 90 -38 5 -4 12 -7 15 -8 11 -2 92
-37 188 -80 127 -58 173 -79 261 -122 112 -54 136 -57 164 -20 19 25 20 41 19
315 0 158 -3 358 -6 444 l-6 156 25 21 c13 12 82 65 152 119 70 54 130 101
131 105 2 5 10 8 17 8 7 0 15 4 17 8 2 4 48 40 103 80 55 39 111 81 125 92 14
11 31 20 38 20 6 0 12 3 12 8 0 4 17 18 38 31 60 40 82 63 82 86 0 23 -35 75
-50 75 -5 0 -60 25 -122 56 -160 79 -507 232 -678 299 -202 79 -190 73 -178
104 24 61 70 187 72 196 2 6 8 21 13 35 61 146 55 166 -62 208 -16 5 -39 13
-50 18 -11 4 -24 8 -30 10 -22 6 -179 65 -182 68 -3 3 15 53 37 101 16 36 69
202 81 252 6 26 13 57 15 68 10 40 27 138 40 225 10 68 12 365 3 445 -7 64
-16 130 -24 180 -12 80 -85 344 -106 385 -4 8 -24 56 -44 105 -36 87 -59 133
-132 260 -36 63 -53 92 -66 109 -4 6 -33 47 -64 91 -139 198 -361 430 -568
594 -44 35 -81 67 -83 72 -2 5 -8 9 -14 9 -5 0 -35 19 -66 43 -77 57 -229 156
-342 220 -48 27 -325 169 -325 166 0 -1 -22 8 -50 20 -137 62 -475 185 -475
174 0 -3 -6 -1 -12 4 -11 9 -55 23 -73 24 -3 0 -23 6 -45 14 -22 8 -40 12 -40
9 0 -2 -16 2 -35 10 -19 8 -35 13 -35 11 0 -2 -15 1 -32 6 -39 11 -238 55
-288 63 -19 3 -46 8 -60 11 -13 2 -42 7 -65 10 -22 3 -51 8 -65 10 -25 4 -82
12 -140 20 -17 2 -65 7 -108 11 -42 4 -95 9 -117 11 -52 5 -672 13 -677 8z"/>
</g>
</svg>
